<?xml version="1.0" encoding="UTF-8"?>
<svg xmlns="http://www.w3.org/2000/svg" xmlns:xlink="http://www.w3.org/1999/xlink" width="75pt" height="74.999997pt" viewBox="0 0 75 74.999997" version="1.2">
<defs>
<clipPath id="clip1">
  <path d="M 0.144531 7.382812 L 75 7.382812 L 75 67.382812 L 0.144531 67.382812 Z M 0.144531 7.382812 "/>
</clipPath>
</defs>
<g id="surface1">
<path style=" stroke:none;fill-rule:nonzero;fill:rgb(65.489197%,9.799194%,46.269226%);fill-opacity:1;" d="M 53.8125 41.191406 C 54.054688 41.347656 54.324219 41.421875 54.59375 41.421875 C 55.0625 41.421875 55.523438 41.195312 55.800781 40.773438 C 56.234375 40.113281 56.042969 39.230469 55.378906 38.800781 L 38.429688 27.855469 C 37.953125 27.546875 37.339844 27.546875 36.859375 27.855469 L 19.910156 38.800781 C 19.246094 39.230469 19.058594 40.113281 19.492188 40.773438 C 19.925781 41.433594 20.8125 41.621094 21.480469 41.191406 L 37.644531 30.75 L 53.8125 41.191406 "/>
<path style=" stroke:none;fill-rule:nonzero;fill:rgb(65.489197%,9.799194%,46.269226%);fill-opacity:1;" d="M 51.371094 61.132812 L 23.917969 61.132812 C 23.125 61.132812 22.480469 61.769531 22.480469 62.558594 C 22.480469 63.34375 23.125 63.984375 23.917969 63.984375 L 51.371094 63.984375 C 52.164062 63.984375 52.808594 63.34375 52.808594 62.558594 C 52.808594 61.769531 52.164062 61.132812 51.371094 61.132812 "/>
<g clip-path="url(#clip1)" clip-rule="nonzero">
<path style=" stroke:none;fill-rule:nonzero;fill:rgb(65.489197%,9.799194%,46.269226%);fill-opacity:1;" d="M 34.808594 18.4375 L 34.808594 10.238281 L 40.480469 10.238281 L 40.480469 18.4375 Z M 74.9375 54.851562 L 63.054688 19.414062 C 62.859375 18.832031 62.3125 18.4375 61.691406 18.4375 L 43.355469 18.4375 L 43.355469 8.8125 C 43.355469 8.023438 42.710938 7.386719 41.917969 7.386719 L 33.371094 7.386719 C 32.578125 7.386719 31.933594 8.023438 31.933594 8.8125 L 31.933594 18.4375 L 13.597656 18.4375 C 12.980469 18.4375 12.429688 18.832031 12.234375 19.414062 L 0.351562 54.851562 C 0.207031 55.285156 0.28125 55.765625 0.550781 56.136719 C 0.820312 56.507812 1.253906 56.726562 1.714844 56.726562 L 8.664062 56.726562 L 8.664062 65.953125 C 8.664062 66.742188 9.308594 67.378906 10.101562 67.378906 C 10.894531 67.378906 11.539062 66.742188 11.539062 65.953125 L 11.539062 56.726562 L 27.027344 56.726562 C 27.820312 56.726562 28.464844 56.089844 28.464844 55.300781 C 28.464844 54.515625 27.820312 53.875 27.027344 53.875 L 24.746094 53.875 L 24.746094 45.5625 C 24.746094 44.773438 24.101562 44.136719 23.308594 44.136719 C 22.515625 44.136719 21.871094 44.773438 21.871094 45.5625 L 21.871094 53.875 L 3.707031 53.875 L 14.632812 21.289062 L 60.65625 21.289062 L 71.582031 53.875 L 53.421875 53.875 L 53.421875 45.5625 C 53.421875 44.773438 52.777344 44.136719 51.984375 44.136719 C 51.1875 44.136719 50.546875 44.773438 50.546875 45.5625 L 50.546875 53.875 L 48.261719 53.875 C 47.46875 53.875 46.824219 54.515625 46.824219 55.300781 C 46.824219 56.089844 47.46875 56.726562 48.261719 56.726562 L 63.753906 56.726562 L 63.753906 65.953125 C 63.753906 66.742188 64.394531 67.378906 65.191406 67.378906 C 65.984375 67.378906 66.628906 66.742188 66.628906 65.953125 L 66.628906 56.726562 L 73.574219 56.726562 C 74.035156 56.726562 74.472656 56.507812 74.742188 56.136719 C 75.011719 55.765625 75.085938 55.285156 74.9375 54.851562 "/>
</g>
<path style=" stroke:none;fill-rule:nonzero;fill:rgb(65.489197%,9.799194%,46.269226%);fill-opacity:1;" d="M 33.992188 42.382812 L 41.296875 42.382812 L 41.296875 46.910156 L 33.992188 46.910156 Z M 32.554688 49.761719 L 42.734375 49.761719 C 43.527344 49.761719 44.171875 49.125 44.171875 48.335938 L 44.171875 40.957031 C 44.171875 40.171875 43.527344 39.53125 42.734375 39.53125 L 32.554688 39.53125 C 31.761719 39.53125 31.117188 40.171875 31.117188 40.957031 L 31.117188 48.335938 C 31.117188 49.125 31.761719 49.761719 32.554688 49.761719 "/>
</g>
</svg>
