<?xml version="1.0" encoding="UTF-8"?>
<svg xmlns="http://www.w3.org/2000/svg" xmlns:xlink="http://www.w3.org/1999/xlink" width="75pt" height="74.999997pt" viewBox="0 0 75 74.999997" version="1.2">
<defs>
<clipPath id="clip1">
  <path d="M 1.328125 1.328125 L 73.328125 1.328125 L 73.328125 73.328125 L 1.328125 73.328125 Z M 1.328125 1.328125 "/>
</clipPath>
</defs>
<g id="surface1">
<g clip-path="url(#clip1)" clip-rule="nonzero">
<path style=" stroke:none;fill-rule:nonzero;fill:rgb(65.489197%,9.799194%,46.269226%);fill-opacity:1;" d="M 1.328125 1.328125 L 1.328125 73.328125 L 73.328125 73.328125 L 73.328125 1.328125 L 67.328125 1.328125 L 67.328125 31.328125 L 61.328125 31.328125 L 61.328125 7.328125 L 43.328125 7.328125 L 43.328125 31.328125 L 7.328125 31.328125 L 7.328125 1.328125 Z M 13.328125 1.328125 L 13.328125 19.328125 L 31.328125 19.328125 L 31.328125 1.328125 Z M 19.328125 7.328125 L 25.328125 7.328125 L 25.328125 13.328125 L 19.328125 13.328125 Z M 49.328125 13.328125 L 55.328125 13.328125 L 55.328125 31.328125 L 49.328125 31.328125 Z M 7.328125 37.328125 L 13.328125 37.328125 L 13.328125 49.328125 L 25.328125 49.328125 L 25.328125 61.328125 L 37.328125 61.328125 L 37.328125 67.328125 L 7.328125 67.328125 Z M 19.328125 37.328125 L 67.328125 37.328125 L 67.328125 67.328125 L 43.328125 67.328125 L 43.328125 55.328125 L 31.328125 55.328125 L 31.328125 43.328125 L 19.328125 43.328125 Z M 19.328125 37.328125 "/>
</g>
</g>
</svg>
