<?xml version="1.0" encoding="UTF-8"?>
<svg xmlns="http://www.w3.org/2000/svg" xmlns:xlink="http://www.w3.org/1999/xlink" width="75pt" height="74.999997pt" viewBox="0 0 75 74.999997" version="1.2">
<g id="surface1">
<path style=" stroke:none;fill-rule:nonzero;fill:rgb(65.489197%,9.799194%,46.269226%);fill-opacity:1;" d="M 73.484375 66.667969 C 69.914062 66.667969 68.089844 68.277344 66.484375 69.699219 C 65.046875 70.96875 63.914062 71.96875 61.488281 71.96875 C 59.0625 71.96875 57.929688 70.96875 56.496094 69.699219 C 54.886719 68.277344 53.066406 66.667969 49.492188 66.667969 C 45.921875 66.667969 44.097656 68.277344 42.492188 69.699219 C 41.058594 70.96875 39.921875 71.96875 37.5 71.96875 C 35.074219 71.96875 33.941406 70.96875 32.503906 69.699219 C 30.898438 68.277344 29.078125 66.667969 25.503906 66.667969 C 21.929688 66.667969 20.109375 68.277344 18.503906 69.699219 C 17.066406 70.96875 15.933594 71.96875 13.507812 71.96875 C 11.085938 71.96875 9.949219 70.96875 8.515625 69.699219 C 6.910156 68.277344 5.085938 66.667969 1.515625 66.667969 C 0.679688 66.667969 0 67.34375 0 68.183594 C 0 69.019531 0.679688 69.695312 1.515625 69.695312 C 3.941406 69.695312 5.074219 70.699219 6.507812 71.96875 C 8.117188 73.390625 9.9375 75 13.507812 75 C 17.082031 75 18.902344 73.390625 20.511719 71.96875 C 21.945312 70.699219 23.078125 69.695312 25.503906 69.695312 C 27.929688 69.695312 29.0625 70.699219 30.496094 71.96875 C 32.105469 73.390625 33.925781 75 37.5 75 C 41.070312 75 42.890625 73.390625 44.5 71.96875 C 45.933594 70.699219 47.066406 69.695312 49.492188 69.695312 C 51.917969 69.695312 53.050781 70.699219 54.488281 71.96875 C 56.09375 73.390625 57.914062 75 61.488281 75 C 65.0625 75 66.882812 73.390625 68.488281 71.96875 C 69.925781 70.699219 71.058594 69.695312 73.484375 69.695312 C 74.320312 69.695312 75 69.019531 75 68.183594 C 75 67.34375 74.320312 66.667969 73.484375 66.667969 "/>
<path style=" stroke:none;fill-rule:nonzero;fill:rgb(65.489197%,9.799194%,46.269226%);fill-opacity:1;" d="M 73.484375 51.796875 C 69.914062 51.796875 68.089844 53.410156 66.484375 54.828125 C 65.046875 56.097656 63.914062 57.101562 61.488281 57.101562 C 59.0625 57.101562 57.929688 56.097656 56.496094 54.828125 C 54.886719 53.410156 53.066406 51.796875 49.492188 51.796875 C 45.921875 51.796875 44.097656 53.410156 42.492188 54.828125 C 41.058594 56.097656 39.921875 57.101562 37.5 57.101562 C 35.074219 57.101562 33.941406 56.097656 32.503906 54.828125 C 30.898438 53.410156 29.078125 51.796875 25.503906 51.796875 C 21.929688 51.796875 20.109375 53.410156 18.503906 54.828125 C 17.066406 56.097656 15.933594 57.101562 13.507812 57.101562 C 11.085938 57.101562 9.949219 56.097656 8.515625 54.828125 C 6.910156 53.410156 5.085938 51.796875 1.515625 51.796875 C 0.679688 51.796875 0 52.476562 0 53.3125 C 0 54.152344 0.679688 54.828125 1.515625 54.828125 C 3.941406 54.828125 5.074219 55.832031 6.507812 57.101562 C 8.117188 58.519531 9.9375 60.132812 13.507812 60.132812 C 17.082031 60.132812 18.902344 58.519531 20.511719 57.101562 C 21.945312 55.832031 23.078125 54.828125 25.503906 54.828125 C 27.929688 54.828125 29.0625 55.832031 30.496094 57.101562 C 32.105469 58.519531 33.925781 60.132812 37.5 60.132812 C 41.070312 60.132812 42.890625 58.519531 44.5 57.101562 C 45.933594 55.832031 47.066406 54.828125 49.492188 54.828125 C 51.917969 54.828125 53.050781 55.832031 54.488281 57.101562 C 56.09375 58.519531 57.914062 60.132812 61.488281 60.132812 C 65.0625 60.132812 66.882812 58.519531 68.488281 57.101562 C 69.925781 55.832031 71.058594 54.828125 73.484375 54.828125 C 74.320312 54.828125 75 54.152344 75 53.3125 C 75 52.476562 74.320312 51.796875 73.484375 51.796875 "/>
<path style=" stroke:none;fill-rule:nonzero;fill:rgb(65.489197%,9.799194%,46.269226%);fill-opacity:1;" d="M 71.96875 17.621094 C 71.96875 26.351562 68.25 32.214844 64.769531 32.214844 L 43.828125 32.214844 C 46.519531 29.070312 48.253906 23.761719 48.253906 17.621094 C 48.253906 11.484375 46.519531 6.175781 43.828125 3.03125 L 64.769531 3.03125 C 68.25 3.03125 71.96875 8.894531 71.96875 17.621094 Z M 29.40625 14.761719 C 30.230469 14.890625 31.003906 14.320312 31.128906 13.492188 C 32.050781 7.429688 34.949219 3.03125 38.023438 3.03125 C 41.5 3.03125 45.222656 8.894531 45.222656 17.621094 C 45.222656 26.351562 41.5 32.214844 38.023438 32.214844 C 37.1875 32.214844 36.507812 32.894531 36.507812 33.730469 C 36.507812 34.566406 37.1875 35.246094 38.023438 35.246094 L 64.769531 35.246094 C 70.507812 35.246094 75 27.503906 75 17.621094 C 75 7.742188 70.507812 0 64.769531 0 L 38.023438 0 C 33.292969 0 29.316406 5.238281 28.132812 13.039062 C 28.007812 13.867188 28.578125 14.636719 29.40625 14.761719 "/>
<path style=" stroke:none;fill-rule:nonzero;fill:rgb(65.489197%,9.799194%,46.269226%);fill-opacity:1;" d="M 37.761719 27.761719 C 37.761719 26.925781 37.085938 26.246094 36.25 26.246094 C 25.738281 26.246094 17.1875 34.796875 17.1875 45.308594 C 17.1875 46.144531 17.863281 46.824219 18.703125 46.824219 C 19.539062 46.824219 20.214844 46.144531 20.214844 45.308594 C 20.214844 36.46875 27.410156 29.277344 36.25 29.277344 C 37.085938 29.277344 37.761719 28.597656 37.761719 27.761719 "/>
<path style=" stroke:none;fill-rule:nonzero;fill:rgb(65.489197%,9.799194%,46.269226%);fill-opacity:1;" d="M 5.945312 46.792969 C 6.046875 46.8125 6.148438 46.824219 6.25 46.824219 C 6.957031 46.824219 7.585938 46.328125 7.734375 45.613281 C 10.785156 30.738281 21.445312 21.859375 36.25 21.859375 C 37.085938 21.859375 37.761719 21.183594 37.761719 20.34375 C 37.761719 19.507812 37.085938 18.832031 36.25 18.832031 C 19.894531 18.832031 8.128906 28.613281 4.765625 45.003906 C 4.597656 45.824219 5.125 46.625 5.945312 46.792969 "/>
</g>
</svg>
