<?xml version="1.0" encoding="UTF-8"?>
<svg xmlns="http://www.w3.org/2000/svg" xmlns:xlink="http://www.w3.org/1999/xlink" width="75pt" height="74.999997pt" viewBox="0 0 75 74.999997" version="1.2">
<defs>
<clipPath id="clip1">
  <path d="M 2.46875 1.835938 L 72.203125 1.835938 L 72.203125 73.085938 L 2.46875 73.085938 Z M 2.46875 1.835938 "/>
</clipPath>
</defs>
<g id="surface1">
<path style=" stroke:none;fill-rule:nonzero;fill:rgb(65.489197%,9.799194%,46.269226%);fill-opacity:1;" d="M 56.980469 68.8125 C 57.425781 68.8125 57.785156 68.449219 57.785156 68 L 57.785156 55.234375 C 57.785156 54.789062 57.425781 54.425781 56.980469 54.425781 C 56.535156 54.425781 56.171875 54.789062 56.171875 55.234375 L 56.171875 68 C 56.171875 68.449219 56.535156 68.8125 56.980469 68.8125 "/>
<g clip-path="url(#clip1)" clip-rule="nonzero">
<path style=" stroke:none;fill-rule:nonzero;fill:rgb(65.489197%,9.799194%,46.269226%);fill-opacity:1;" d="M 70.589844 17.035156 C 70.589844 20.4375 69.191406 23.65625 66.648438 26.105469 C 64.132812 28.527344 60.800781 29.863281 57.265625 29.863281 C 53.734375 29.863281 50.402344 28.527344 47.882812 26.105469 C 45.34375 23.65625 43.945312 20.4375 43.945312 17.035156 L 43.945312 3.457031 L 45.464844 3.457031 L 45.464844 17.035156 C 45.464844 20.003906 46.71875 22.898438 48.910156 24.976562 C 51.175781 27.125 54.144531 28.308594 57.265625 28.308594 C 60.394531 28.308594 63.359375 27.125 65.621094 24.976562 C 67.8125 22.898438 69.070312 20.003906 69.070312 17.035156 L 69.070312 5.371094 L 70.589844 5.371094 Z M 39.71875 29.863281 L 17.371094 29.863281 C 16.929688 29.863281 16.492188 29.84375 16.058594 29.800781 C 13.453125 29.554688 11.003906 28.574219 8.96875 26.960938 C 8.632812 26.695312 8.308594 26.410156 7.992188 26.105469 C 7.894531 26.011719 7.808594 25.90625 7.710938 25.804688 C 7.496094 25.585938 7.285156 25.367188 7.085938 25.132812 C 6.898438 24.910156 6.730469 24.675781 6.558594 24.445312 C 6.457031 24.300781 6.347656 24.160156 6.246094 24.015625 C 6.195312 23.933594 6.148438 23.851562 6.097656 23.773438 L 40.484375 23.773438 C 40.929688 23.773438 41.292969 23.410156 41.292969 22.964844 C 41.292969 22.515625 40.929688 22.152344 40.484375 22.152344 L 5.207031 22.152344 C 4.476562 20.550781 4.082031 18.816406 4.082031 17.035156 L 4.082031 3.457031 L 42.332031 3.457031 L 42.332031 17.035156 C 42.332031 20.882812 43.90625 24.519531 46.765625 27.273438 C 47.863281 28.328125 49.097656 29.195312 50.429688 29.863281 Z M 57.636719 47.773438 C 59.433594 48.796875 60.550781 50.710938 60.550781 52.773438 C 60.550781 52.847656 60.5625 52.921875 60.582031 52.988281 L 60.582031 71.46875 L 49.347656 71.46875 L 49.347656 57.132812 L 53.433594 55.121094 C 53.835938 54.921875 54 54.4375 53.804688 54.035156 C 53.609375 53.636719 53.125 53.464844 52.722656 53.664062 L 48.5625 55.714844 L 31.058594 46.070312 C 29 45.171875 27.671875 43.121094 27.671875 40.847656 L 27.671875 31.484375 L 38.910156 31.484375 L 38.910156 36.617188 L 36.480469 38.675781 C 36.140625 38.964844 36.097656 39.472656 36.382812 39.816406 C 36.671875 40.15625 37.179688 40.199219 37.519531 39.914062 L 39.816406 37.96875 Z M 47.078125 5.371094 L 67.457031 5.371094 L 67.457031 17.035156 C 67.457031 19.558594 66.382812 22.027344 64.511719 23.800781 C 62.550781 25.664062 59.976562 26.6875 57.265625 26.6875 C 54.558594 26.6875 51.984375 25.664062 50.023438 23.800781 C 48.152344 22.023438 47.078125 19.558594 47.078125 17.035156 Z M 71.398438 3.75 L 47.078125 3.75 L 47.078125 2.648438 C 47.078125 2.199219 46.71875 1.835938 46.269531 1.835938 L 3.277344 1.835938 C 2.828125 1.835938 2.46875 2.199219 2.46875 2.648438 L 2.46875 17.035156 C 2.46875 19.210938 2.988281 21.3125 3.941406 23.238281 C 3.953125 23.269531 3.949219 23.300781 3.960938 23.328125 C 4.027344 23.453125 4.097656 23.570312 4.167969 23.695312 C 4.214844 23.785156 4.265625 23.875 4.316406 23.964844 C 4.507812 24.300781 4.710938 24.632812 4.929688 24.949219 C 4.960938 25 4.992188 25.050781 5.027344 25.097656 C 5.574219 25.882812 6.183594 26.617188 6.871094 27.273438 C 9.691406 29.988281 13.421875 31.484375 17.371094 31.484375 L 26.058594 31.484375 L 26.058594 40.847656 C 26.058594 43.765625 27.769531 46.398438 30.347656 47.519531 L 47.734375 57.109375 L 47.734375 72.277344 C 47.734375 72.726562 48.09375 73.085938 48.539062 73.085938 L 61.390625 73.085938 C 61.835938 73.085938 62.199219 72.726562 62.199219 72.277344 L 62.199219 52.773438 C 62.199219 52.691406 62.1875 52.613281 62.164062 52.542969 C 62.082031 49.988281 60.667969 47.636719 58.421875 46.359375 L 40.523438 36.511719 L 40.523438 31.484375 L 57.265625 31.484375 C 61.21875 31.484375 64.949219 29.988281 67.769531 27.273438 C 70.628906 24.515625 72.203125 20.882812 72.203125 17.035156 L 72.203125 4.558594 C 72.203125 4.113281 71.84375 3.75 71.398438 3.75 "/>
</g>
</g>
</svg>
