<?xml version="1.0" encoding="UTF-8"?>
<svg xmlns="http://www.w3.org/2000/svg" xmlns:xlink="http://www.w3.org/1999/xlink" width="75pt" height="74.999997pt" viewBox="0 0 75 74.999997" version="1.2">
<defs>
<clipPath id="clip1">
  <path d="M 12.457031 0.464844 L 62.707031 0.464844 L 62.707031 26 L 12.457031 26 Z M 12.457031 0.464844 "/>
</clipPath>
<clipPath id="clip2">
  <path d="M 14 26 L 62.707031 26 L 62.707031 74.714844 L 14 74.714844 Z M 14 26 "/>
</clipPath>
<clipPath id="clip3">
  <path d="M 12.457031 26 L 61 26 L 61 74.714844 L 12.457031 74.714844 Z M 12.457031 26 "/>
</clipPath>
</defs>
<g id="surface1">
<g clip-path="url(#clip1)" clip-rule="nonzero">
<path style=" stroke:none;fill-rule:nonzero;fill:rgb(65.489197%,9.799194%,46.269226%);fill-opacity:1;" d="M 38.589844 0.519531 L 12.453125 25.53125 L 62.707031 25.53125 Z M 38.589844 0.519531 "/>
</g>
<g clip-path="url(#clip2)" clip-rule="nonzero">
<path style=" stroke:none;fill-rule:nonzero;fill:rgb(65.489197%,9.799194%,46.269226%);fill-opacity:1;" d="M 54.273438 62.175781 L 56.367188 61.613281 C 57.039062 61.433594 57.734375 61.832031 57.914062 62.507812 C 58.09375 63.179688 57.695312 63.871094 57.019531 64.050781 L 55.640625 64.421875 L 56.011719 65.800781 C 56.191406 66.476562 55.792969 67.167969 55.117188 67.347656 C 55.007812 67.375 54.898438 67.390625 54.789062 67.390625 C 54.230469 67.390625 53.722656 67.019531 53.570312 66.453125 L 53.007812 64.359375 L 49.757812 62.488281 L 49.757812 66.234375 L 51.292969 67.769531 C 51.785156 68.261719 51.785156 69.058594 51.292969 69.554688 C 51.046875 69.800781 50.722656 69.921875 50.398438 69.921875 C 50.074219 69.921875 49.753906 69.800781 49.503906 69.554688 L 48.496094 68.542969 L 47.484375 69.554688 C 47.238281 69.800781 46.914062 69.921875 46.59375 69.921875 C 46.269531 69.921875 45.945312 69.800781 45.699219 69.554688 C 45.207031 69.058594 45.207031 68.261719 45.699219 67.769531 L 47.234375 66.234375 L 47.234375 62.488281 L 43.984375 64.359375 L 43.421875 66.453125 C 43.269531 67.019531 42.761719 67.390625 42.203125 67.390625 C 42.09375 67.390625 41.984375 67.375 41.875 67.347656 C 41.199219 67.167969 40.800781 66.476562 40.980469 65.800781 L 41.351562 64.421875 L 39.972656 64.050781 C 39.296875 63.871094 38.898438 63.179688 39.078125 62.507812 C 39.257812 61.832031 39.953125 61.433594 40.625 61.613281 L 42.71875 62.175781 L 45.96875 60.300781 L 42.71875 58.425781 L 40.625 58.984375 C 40.515625 59.015625 40.40625 59.03125 40.296875 59.03125 C 39.738281 59.03125 39.230469 58.65625 39.078125 58.09375 C 38.898438 57.421875 39.296875 56.726562 39.972656 56.546875 L 41.351562 56.179688 L 40.980469 54.796875 C 40.800781 54.125 41.199219 53.433594 41.875 53.253906 C 42.546875 53.074219 43.242188 53.472656 43.421875 54.144531 L 43.984375 56.238281 L 47.234375 58.113281 L 47.234375 54.363281 L 45.699219 52.832031 C 45.207031 52.339844 45.207031 51.539062 45.699219 51.046875 C 46.191406 50.554688 46.992188 50.554688 47.484375 51.046875 L 48.496094 52.054688 L 49.503906 51.046875 C 50 50.554688 50.800781 50.554688 51.292969 51.046875 C 51.785156 51.539062 51.785156 52.339844 51.292969 52.832031 L 49.757812 54.363281 L 49.757812 58.113281 L 53.007812 56.238281 L 53.570312 54.144531 C 53.75 53.472656 54.445312 53.074219 55.117188 53.253906 C 55.792969 53.433594 56.191406 54.125 56.011719 54.796875 L 55.640625 56.179688 L 57.019531 56.546875 C 57.695312 56.726562 58.09375 57.421875 57.914062 58.09375 C 57.761719 58.65625 57.253906 59.03125 56.695312 59.03125 C 56.585938 59.03125 56.476562 59.015625 56.367188 58.984375 L 54.273438 58.425781 L 51.023438 60.300781 Z M 14.640625 74.667969 L 62.707031 74.667969 L 62.707031 26.636719 Z M 14.640625 74.667969 "/>
</g>
<g clip-path="url(#clip3)" clip-rule="nonzero">
<path style=" stroke:none;fill-rule:nonzero;fill:rgb(65.489197%,9.799194%,46.269226%);fill-opacity:1;" d="M 33.238281 45.480469 L 28.773438 44.660156 L 28.175781 49.15625 L 25.046875 45.871094 L 21.921875 49.15625 L 21.320312 44.660156 L 16.859375 45.480469 L 19.015625 41.492188 L 14.921875 39.53125 L 19.015625 37.574219 L 16.859375 33.585938 L 21.320312 34.402344 L 21.921875 29.910156 L 25.046875 33.195312 L 28.175781 29.910156 L 28.773438 34.402344 L 33.238281 33.585938 L 31.082031 37.574219 L 35.171875 39.53125 L 31.082031 41.492188 Z M 60.507812 26.625 L 12.46875 26.625 L 12.453125 26.636719 L 12.453125 74.667969 L 60.523438 26.636719 L 60.507812 26.625 "/>
</g>
<path style=" stroke:none;fill-rule:nonzero;fill:rgb(65.489197%,9.799194%,46.269226%);fill-opacity:1;" d="M 29.851562 39.53125 C 29.851562 42.183594 27.703125 44.332031 25.046875 44.332031 C 22.394531 44.332031 20.246094 42.183594 20.246094 39.53125 C 20.246094 36.882812 22.394531 34.734375 25.046875 34.734375 C 27.703125 34.734375 29.851562 36.882812 29.851562 39.53125 "/>
</g>
</svg>
