<?xml version="1.0" encoding="UTF-8"?>
<svg xmlns="http://www.w3.org/2000/svg"
  xmlns:xlink="http://www.w3.org/1999/xlink" width="75pt" height="74.999997pt" viewBox="0 0 75 74.999997" version="1.2">
  <defs>
    <clipPath id="clip1">
      <path d="M 1.191406 1.191406 L 73.941406 1.191406 L 73.941406 73.941406 L 1.191406 73.941406 Z M 1.191406 1.191406 "/>
    </clipPath>
  </defs>
  <g id="surface1">
    <g clip-path="url(#clip1)" clip-rule="nonzero">
      <path style=" stroke:none;fill-rule:nonzero;fill:rgb(65.489197%,9.799194%,46.269226%);fill-opacity:1;" d="M 37.566406 1.191406 C 17.476562 1.191406 1.191406 17.476562 1.191406 37.566406 C 1.191406 57.65625 17.476562 73.941406 37.566406 73.941406 L 40.597656 73.941406 L 40.597656 52.417969 C 47.515625 51.011719 52.722656 44.898438 52.722656 37.566406 L 52.722656 28.472656 L 46.660156 28.472656 L 46.660156 19.378906 C 46.660156 17.703125 45.304688 16.347656 43.628906 16.347656 C 41.953125 16.347656 40.597656 17.703125 40.597656 19.378906 L 40.597656 28.472656 L 34.535156 28.472656 L 34.535156 19.378906 C 34.535156 17.703125 33.179688 16.347656 31.503906 16.347656 C 29.828125 16.347656 28.472656 17.703125 28.472656 19.378906 L 28.472656 28.472656 L 22.410156 28.472656 L 22.410156 37.566406 C 22.410156 44.898438 27.617188 51.011719 34.535156 52.417969 L 34.535156 67.726562 C 19.21875 66.203125 7.253906 53.285156 7.253906 37.566406 C 7.253906 20.824219 20.824219 7.253906 37.566406 7.253906 C 54.300781 7.253906 67.878906 20.824219 67.878906 37.566406 C 67.878906 50.199219 60.144531 61.011719 49.164062 65.566406 L 51.460938 71.117188 C 64.644531 65.660156 73.941406 52.726562 73.941406 37.566406 C 73.941406 17.476562 57.648438 1.191406 37.566406 1.191406 Z M 37.566406 1.191406 "/>
    </g>
  </g>
</svg>
