<?xml version="1.0" encoding="UTF-8"?>
<svg xmlns="http://www.w3.org/2000/svg" xmlns:xlink="http://www.w3.org/1999/xlink" width="75pt" height="74.999997pt" viewBox="0 0 75 74.999997" version="1.2">
<defs>
<clipPath id="clip1">
  <path d="M 0 3.796875 L 75 3.796875 L 75 71.296875 L 0 71.296875 Z M 0 3.796875 "/>
</clipPath>
<clipPath id="clip2">
  <path d="M 14 26 L 35 26 L 35 71.296875 L 14 71.296875 Z M 14 26 "/>
</clipPath>
</defs>
<g id="surface1">
<g clip-path="url(#clip1)" clip-rule="nonzero">
<path style=" stroke:none;fill-rule:nonzero;fill:rgb(65.489197%,9.799194%,46.269226%);fill-opacity:1;" d="M 32.914062 63.292969 L 32.914062 58.8125 L 63.539062 58.8125 L 63.539062 63.292969 Z M 27.5 67.140625 L 26.941406 67.140625 L 26.941406 54.964844 L 27.5 54.964844 C 29.453125 54.964844 31.042969 56.554688 31.042969 58.511719 L 31.042969 63.59375 C 31.042969 65.550781 29.453125 67.140625 27.5 67.140625 Z M 45.746094 50.011719 C 44.429688 50.011719 43.359375 48.941406 43.359375 47.625 L 43.359375 34.820312 L 47.113281 34.820312 L 47.113281 44.191406 C 47.113281 45.40625 48.097656 46.394531 49.3125 46.394531 L 63.539062 46.394531 L 63.539062 50.011719 Z M 39.429688 29.402344 L 39.429688 28.84375 L 51.589844 28.84375 L 51.589844 29.402344 C 51.589844 31.359375 50 32.949219 48.046875 32.949219 L 42.972656 32.949219 C 41.019531 32.949219 39.429688 31.359375 39.429688 29.402344 Z M 74.574219 33.742188 L 62.230469 23.703125 L 62.230469 9.011719 C 62.230469 8.496094 61.808594 8.074219 61.292969 8.074219 L 51.691406 8.074219 C 51.175781 8.074219 50.757812 8.496094 50.757812 9.011719 L 50.757812 14.371094 L 38.089844 4.070312 C 37.746094 3.792969 37.253906 3.792969 36.910156 4.070312 L 0.425781 33.742188 C 0.117188 33.992188 0 34.40625 0.132812 34.78125 C 0.265625 35.15625 0.617188 35.402344 1.015625 35.402344 L 9.589844 35.402344 L 9.589844 70.363281 C 9.589844 70.878906 10.007812 71.300781 10.523438 71.300781 C 11.042969 71.300781 11.460938 70.878906 11.460938 70.363281 L 11.460938 34.46875 C 11.460938 33.949219 11.042969 33.53125 10.523438 33.53125 L 3.652344 33.53125 L 37.5 6.007812 L 51.101562 17.066406 C 51.382812 17.292969 51.765625 17.339844 52.09375 17.183594 C 52.417969 17.027344 52.625 16.699219 52.625 16.339844 L 52.625 9.949219 L 60.359375 9.949219 L 60.359375 24.148438 C 60.359375 24.429688 60.484375 24.695312 60.703125 24.875 L 71.347656 33.53125 L 64.476562 33.53125 C 63.957031 33.53125 63.539062 33.949219 63.539062 34.46875 L 63.539062 44.519531 L 49.3125 44.519531 C 49.128906 44.519531 48.980469 44.371094 48.980469 44.191406 L 48.980469 34.738281 C 51.523438 34.292969 53.460938 32.070312 53.460938 29.402344 L 53.460938 27.90625 C 53.460938 27.390625 53.039062 26.972656 52.523438 26.972656 L 38.496094 26.972656 C 37.976562 26.972656 37.558594 27.390625 37.558594 27.90625 L 37.558594 29.402344 C 37.558594 31.875 39.222656 33.964844 41.488281 34.613281 L 41.488281 47.625 C 41.488281 49.972656 43.398438 51.886719 45.746094 51.886719 L 63.539062 51.886719 L 63.539062 56.941406 L 32.679688 56.941406 C 32.003906 54.714844 29.9375 53.089844 27.5 53.089844 L 26.007812 53.089844 C 25.492188 53.089844 25.070312 53.511719 25.070312 54.027344 L 25.070312 68.078125 C 25.070312 68.59375 25.492188 69.015625 26.007812 69.015625 L 27.5 69.015625 C 29.9375 69.015625 32.003906 67.390625 32.679688 65.167969 L 63.539062 65.167969 L 63.539062 70.363281 C 63.539062 70.878906 63.957031 71.300781 64.476562 71.300781 C 64.992188 71.300781 65.410156 70.878906 65.410156 70.363281 L 65.410156 35.402344 L 73.984375 35.402344 C 74.382812 35.402344 74.734375 35.15625 74.867188 34.78125 C 75 34.40625 74.882812 33.992188 74.574219 33.742188 "/>
</g>
<g clip-path="url(#clip2)" clip-rule="nonzero">
<path style=" stroke:none;fill-rule:nonzero;fill:rgb(65.489197%,9.799194%,46.269226%);fill-opacity:1;" d="M 20.375 29.402344 L 20.375 28.84375 L 32.535156 28.84375 L 32.535156 29.402344 C 32.535156 31.359375 30.945312 32.949219 28.992188 32.949219 L 23.917969 32.949219 C 21.964844 32.949219 20.375 31.359375 20.375 29.402344 Z M 29.929688 44.65625 L 29.929688 34.738281 C 32.46875 34.292969 34.40625 32.070312 34.40625 29.402344 L 34.40625 27.90625 C 34.40625 27.390625 33.988281 26.972656 33.46875 26.972656 L 19.441406 26.972656 C 18.921875 26.972656 18.503906 27.390625 18.503906 27.90625 L 18.503906 29.402344 C 18.503906 32.070312 20.441406 34.292969 22.984375 34.738281 L 22.984375 39.617188 C 22.984375 40.425781 22.324219 41.085938 21.515625 41.085938 L 18.136719 41.085938 C 16.296875 41.085938 14.800781 42.582031 14.800781 44.425781 L 14.800781 70.363281 C 14.800781 70.878906 15.21875 71.300781 15.738281 71.300781 C 16.253906 71.300781 16.671875 70.878906 16.671875 70.363281 L 16.671875 44.425781 C 16.671875 43.617188 17.328125 42.957031 18.136719 42.957031 L 21.515625 42.957031 C 23.355469 42.957031 24.851562 41.460938 24.851562 39.617188 L 24.851562 34.820312 L 28.058594 34.820312 L 28.058594 44.65625 C 28.058594 45.414062 27.441406 46.03125 26.683594 46.03125 L 23.804688 46.03125 C 22.015625 46.03125 20.5625 47.488281 20.5625 49.277344 L 20.5625 70.363281 C 20.5625 70.878906 20.980469 71.300781 21.496094 71.300781 C 22.015625 71.300781 22.433594 70.878906 22.433594 70.363281 L 22.433594 49.277344 C 22.433594 48.519531 23.046875 47.902344 23.804688 47.902344 L 26.683594 47.902344 C 28.472656 47.902344 29.929688 46.445312 29.929688 44.65625 "/>
</g>
</g>
</svg>
