<?xml version="1.0" encoding="UTF-8"?>
<svg xmlns="http://www.w3.org/2000/svg" xmlns:xlink="http://www.w3.org/1999/xlink" width="75pt" height="74.999997pt" viewBox="0 0 75 74.999997" version="1.2">
<defs>
<clipPath id="clip1">
  <path d="M 0 7.5 L 75 7.5 L 75 68.25 L 0 68.25 Z M 0 7.5 "/>
</clipPath>
</defs>
<g id="surface1">
<path style=" stroke:none;fill-rule:nonzero;fill:rgb(65.489197%,9.799194%,46.269226%);fill-opacity:1;" d="M 53.664062 41.734375 C 53.90625 41.890625 54.179688 41.964844 54.449219 41.964844 C 54.917969 41.964844 55.378906 41.734375 55.652344 41.308594 C 56.085938 40.640625 55.898438 39.746094 55.234375 39.3125 L 38.285156 28.226562 C 37.808594 27.917969 37.191406 27.917969 36.714844 28.226562 L 19.765625 39.3125 C 19.101562 39.746094 18.914062 40.640625 19.347656 41.308594 C 19.777344 41.976562 20.667969 42.167969 21.335938 41.734375 L 37.5 31.160156 L 53.664062 41.734375 "/>
<path style=" stroke:none;fill-rule:nonzero;fill:rgb(65.489197%,9.799194%,46.269226%);fill-opacity:1;" d="M 51.226562 61.921875 L 23.773438 61.921875 C 22.980469 61.921875 22.335938 62.566406 22.335938 63.363281 C 22.335938 64.160156 22.980469 64.808594 23.773438 64.808594 L 51.226562 64.808594 C 52.019531 64.808594 52.664062 64.160156 52.664062 63.363281 C 52.664062 62.566406 52.019531 61.921875 51.226562 61.921875 "/>
<g clip-path="url(#clip1)" clip-rule="nonzero">
<path style=" stroke:none;fill-rule:nonzero;fill:rgb(65.489197%,9.799194%,46.269226%);fill-opacity:1;" d="M 34.664062 18.695312 L 34.664062 10.390625 L 40.335938 10.390625 L 40.335938 18.695312 Z M 74.792969 55.5625 L 62.910156 19.679688 C 62.714844 19.089844 62.164062 18.695312 61.546875 18.695312 L 43.210938 18.695312 L 43.210938 8.945312 C 43.210938 8.148438 42.566406 7.503906 41.773438 7.503906 L 33.226562 7.503906 C 32.433594 7.503906 31.789062 8.148438 31.789062 8.945312 L 31.789062 18.695312 L 13.453125 18.695312 C 12.835938 18.695312 12.285156 19.089844 12.089844 19.679688 L 0.207031 55.5625 C 0.0625 56.003906 0.136719 56.484375 0.40625 56.863281 C 0.675781 57.238281 1.109375 57.460938 1.570312 57.460938 L 8.519531 57.460938 L 8.519531 66.804688 C 8.519531 67.601562 9.164062 68.246094 9.957031 68.246094 C 10.75 68.246094 11.394531 67.601562 11.394531 66.804688 L 11.394531 57.460938 L 26.882812 57.460938 C 27.675781 57.460938 28.320312 56.816406 28.320312 56.019531 C 28.320312 55.222656 27.675781 54.574219 26.882812 54.574219 L 24.601562 54.574219 L 24.601562 46.15625 C 24.601562 45.359375 23.957031 44.714844 23.164062 44.714844 C 22.371094 44.714844 21.726562 45.359375 21.726562 46.15625 L 21.726562 54.574219 L 3.5625 54.574219 L 14.488281 21.582031 L 60.511719 21.582031 L 71.4375 54.574219 L 53.273438 54.574219 L 53.273438 46.15625 C 53.273438 45.359375 52.628906 44.714844 51.835938 44.714844 C 51.042969 44.714844 50.398438 45.359375 50.398438 46.15625 L 50.398438 54.574219 L 48.117188 54.574219 C 47.324219 54.574219 46.679688 55.222656 46.679688 56.019531 C 46.679688 56.816406 47.324219 57.460938 48.117188 57.460938 L 63.605469 57.460938 L 63.605469 66.804688 C 63.605469 67.601562 64.25 68.246094 65.042969 68.246094 C 65.835938 68.246094 66.480469 67.601562 66.480469 66.804688 L 66.480469 57.460938 L 73.429688 57.460938 C 73.890625 57.460938 74.324219 57.238281 74.59375 56.863281 C 74.863281 56.484375 74.9375 56.003906 74.792969 55.5625 "/>
</g>
<path style=" stroke:none;fill-rule:nonzero;fill:rgb(65.489197%,9.799194%,46.269226%);fill-opacity:1;" d="M 33.847656 42.9375 L 41.152344 42.9375 L 41.152344 47.523438 L 33.847656 47.523438 Z M 32.410156 50.410156 L 42.589844 50.410156 C 43.382812 50.410156 44.027344 49.765625 44.027344 48.964844 L 44.027344 41.496094 C 44.027344 40.695312 43.382812 40.050781 42.589844 40.050781 L 32.410156 40.050781 C 31.617188 40.050781 30.972656 40.695312 30.972656 41.496094 L 30.972656 48.964844 C 30.972656 49.765625 31.617188 50.410156 32.410156 50.410156 "/>
</g>
</svg>
